<svg width="362" height="122" viewBox="0 0 362 122" fill="none" xmlns="http://www.w3.org/2000/svg">
<rect width="362" height="122" fill="#74B83E"/>
<path d="M24.5263 28.5505C25.1208 31.7233 24.1599 34.8778 22.2733 35.6299C20.3936 36.3797 18.2624 34.2752 17.6258 30.8838C16.8605 27.4396 18.8939 15.0967 18.8939 15.0967C18.8939 15.0967 23.8339 25.4949 24.5263 28.5505Z" fill="white"/>
<path d="M32.8911 40.899C32.1096 43.8177 30.0076 45.5243 28.1304 44.5031C26.2481 43.4911 25.3532 40.0779 26.2095 37.0822C27.0116 33.9841 33.5303 26.4585 33.5303 26.4585C33.5303 26.4585 33.5689 37.9343 32.8911 40.899Z" fill="white"/>
<path d="M37.525 55.8895C36.9751 58.8841 35.037 60.8897 33.0826 60.164C31.1333 59.4418 29.9674 56.1781 30.5868 53.0846C31.1445 49.8922 37.0592 41.5283 37.0592 41.5283C37.0592 41.5283 37.9583 52.8753 37.525 55.8895Z" fill="white"/>
<path d="M43.3547 69.8779C43.0776 72.9081 41.3497 75.2368 39.3464 74.8585C37.3482 74.4824 35.8854 71.4419 36.2372 68.2771C36.5057 65.0157 41.7074 55.8721 41.7074 55.8721C41.7074 55.8721 43.5031 66.8465 43.3547 69.8779Z" fill="white"/>
<path d="M16.0883 48.8477C18.1766 50.8096 20.5831 50.2036 21.5105 47.7127C22.4311 45.2183 21.5886 41.7845 19.6025 39.8214C17.6095 37.9849 9 34.9673 9 34.9673C9 34.9673 13.9177 47.0089 16.0883 48.8477Z" fill="white"/>
<path d="M21.4677 66.2437C23.7086 67.9112 26.0585 66.9418 26.7655 64.3278C27.475 61.707 26.3597 58.4145 24.2294 56.7332C22.1034 55.1842 13.3052 53.3477 13.3052 53.3477C13.3052 53.3477 19.1392 64.7119 21.4677 66.2437Z" fill="white"/>
<path d="M28.3947 82.8524C30.7918 84.1588 33.0267 82.7868 33.4763 80.0659C33.9267 77.3347 32.5111 74.2562 30.2478 72.9107C27.9983 71.717 19.08 71.1558 19.08 71.1558C19.08 71.1558 25.9101 81.7139 28.3947 82.8524Z" fill="white"/>
<path d="M50.4336 82.4598C50.4602 85.4947 49.036 88.1259 47.0087 88.1753C44.9994 88.2098 43.2286 85.4786 43.2526 82.2988C43.1703 79.0167 47.4849 69.1118 47.4849 69.1118C47.4849 69.1118 50.2397 79.4733 50.4336 82.4598Z" fill="white"/>
<path d="M37.0617 98.2439C39.5858 99.1064 41.6577 97.271 41.7821 94.4949C41.9194 91.6912 40.1915 88.9152 37.7987 87.9963C35.4419 87.2488 26.5115 88.1665 26.5115 88.1665C26.5115 88.1665 34.4338 97.6206 37.0617 98.2439Z" fill="white"/>
<path d="M71.437 117.909C59.062 111.526 48.2717 100.184 40.1632 86.2446C31.993 72.3055 26.2147 56.1101 22.2742 39.3041C22.1309 38.6819 22.3531 38.0402 22.7718 37.87C23.1896 37.6998 23.6426 38.0575 23.7842 38.6704C27.6758 55.2741 33.3837 71.2475 41.4064 84.9313C49.3724 98.6197 59.9148 109.69 72.0127 115.933C72.4545 116.166 72.6896 116.8 72.5369 117.349C72.3825 117.898 71.8909 118.149 71.437 117.909Z" fill="white"/>
<path d="M62.7074 14.0676C61.9507 16.2031 60.348 17.4071 59.0156 16.6942C57.6927 15.9892 57.1959 13.4558 58.0238 11.1121C58.784 8.61888 64.2577 3 64.2577 3C64.2577 3 63.3345 11.9412 62.7074 14.0676Z" fill="white"/>
<path d="M63.3996 25.9746C62.0158 27.1614 60.227 26.9601 59.4608 25.2857C58.6698 23.6079 59.2995 21.0951 60.7735 19.898C62.2826 18.5835 68.5001 18.4375 68.5001 18.4375C68.5001 18.4375 64.72 24.6647 63.3996 25.9746Z" fill="white"/>
<path d="M61.5191 37.1018C60.2991 38.5635 58.5094 38.7601 57.5502 37.2778C56.5679 35.7989 56.8767 33.1804 58.2014 31.6946C59.5132 30.0639 65.6449 28.6885 65.6449 28.6885C65.6449 28.6885 62.655 35.5172 61.5191 37.1018Z" fill="white"/>
<path d="M61.0437 48.4607C60.0116 50.1765 58.2923 50.7676 57.1461 49.5199C56.011 48.279 55.9681 45.6294 57.0946 43.8688C58.1971 41.9644 64.068 39.2769 64.068 39.2769C64.068 39.2769 61.9677 46.6322 61.0437 48.4607Z" fill="white"/>
<path d="M51.0323 20.7858C51.5977 23.2318 53.2012 24.2565 54.5568 23.3135C55.8926 22.3555 56.5575 19.8623 56.0728 17.5025C55.5468 15.2543 51.7616 8.10938 51.7616 8.10938C51.7616 8.10938 50.3322 18.3593 51.0323 20.7858Z" fill="white"/>
<path d="M48.6877 34.6766C49.5422 36.9777 51.2495 37.6343 52.4721 36.405C53.6758 35.1642 54.0232 32.5583 53.2768 30.3284C52.4652 28.2182 47.9284 21.8955 47.9284 21.8955C47.9284 21.8955 47.6873 32.4329 48.6877 34.6766Z" fill="white"/>
<path d="M48.0888 48.9296C49.2076 51.0077 50.993 51.2733 52.0302 49.7898C53.0804 48.2983 53.0769 45.6522 52.0688 43.6178C51.017 41.7226 45.7604 36.4648 45.7604 36.4648C45.7604 36.4648 46.8242 46.9517 48.0888 48.9296Z" fill="white"/>
<path d="M61.967 59.8122C61.1631 61.7385 59.5218 62.693 58.2521 61.7028C56.9772 60.7207 56.6185 58.1148 57.5134 56.1276C58.3687 54.0059 63.8261 50.0396 63.8261 50.0396C63.8261 50.0396 62.6628 57.7951 61.967 59.8122Z" fill="white"/>
<path d="M49.2392 63.0782C50.5974 64.8745 52.3776 64.7595 53.2347 63.0713C54.0866 61.3773 53.7675 58.7657 52.5243 56.9855C51.2554 55.3479 45.4248 51.3413 45.4248 51.3413C45.4248 51.3413 47.7627 61.4107 49.2392 63.0782Z" fill="white"/>
<path d="M64.7484 93.0782C59.2824 82.3373 55.8043 69.9104 54.4899 57.065C53.1696 44.2103 54.3604 30.9359 57.7793 18.815C57.8977 18.363 58.2512 18.133 58.5454 18.286C58.844 18.4412 58.9718 18.9139 58.856 19.3566C51.8869 43.2029 54.997 71.2237 65.6861 92.1858C65.8852 92.563 65.8448 93.0621 65.5952 93.3232C65.3429 93.5854 64.9569 93.4727 64.7484 93.0782Z" fill="white"/>
<path d="M129.595 58.0099C128.014 66.7178 122.552 73.0372 116.2 75.4645C114.187 76.1581 111.686 76.4278 108.639 76.4278H90.9317L95.2435 51.3052H91.9664L97.5719 18.9389C102.545 18.9389 117.637 17.6673 122.725 20.1719C127.036 22.4452 129.078 27.2231 128.014 33.4651C127.209 38.1272 125.111 41.7493 122.293 44.5621C124.651 46.1419 126.03 48.531 126.49 51.3052H129.652C130.026 53.463 129.94 55.5438 129.595 58.0099ZM114.878 57.7786C115.798 52.4229 111.86 53.4629 109.273 53.4629L107.72 62.3638C110.911 62.3638 114.045 62.8648 114.878 57.7786ZM113.154 36.9718C113.815 33.3884 111.601 32.9646 109.503 32.9646L108.411 39.9389C110.02 40.1316 112.722 39.8231 113.154 36.9718ZM149.057 51.4597L144.746 76.5823H130.2L134.512 51.4597H131.58L137.214 18.9391H151.731L146.154 51.4597H149.057ZM177.488 50.2267L173.118 76.5823H158.544L163.028 50.2267H160.412L163.316 33.3501H151.817L154.347 18.7466H191.66L189.216 33.3501H177.747L174.929 50.2267H177.488ZM191.803 51.4597H188.871L194.505 18.9391H225.292L222.82 33.5427H206.406L205.543 38.4747H220.635L218.422 51.4597H221.354L221.095 53.001H205.975L204.451 62.0175H220.808L218.336 76.5824H187.49L191.803 51.4597ZM261.569 58.0099C259.988 66.7178 254.526 73.0372 248.173 75.4645C246.161 76.1581 243.66 76.4278 240.613 76.4278H222.905L227.217 51.3052H223.94L229.545 18.9389C234.518 18.9389 249.61 17.6673 254.698 20.1719C259.01 22.4452 261.051 27.2231 259.987 33.4651C259.182 38.1272 257.084 41.7493 254.267 44.5621C256.624 46.1419 258.004 48.531 258.464 51.3052H261.626C261.999 53.463 261.914 55.5438 261.569 58.0099ZM246.852 57.7786C247.771 52.4229 243.833 53.4629 241.246 53.4629L239.694 62.3638C242.885 62.3638 246.018 62.8648 246.852 57.7786ZM245.127 36.9718C245.788 33.3884 243.575 32.9646 241.476 32.9646L240.384 39.9389C241.994 40.1316 244.696 39.8231 245.127 36.9718ZM305.782 48.1845C305.552 49.4175 305.294 50.6505 304.949 51.922H308.082C304.431 67.2192 295.146 78.3163 282.412 78.3163C269.275 78.3163 264.158 67.2192 265.825 51.922H262.778C262.893 50.6505 263.037 49.4175 263.238 48.1845C266.285 30.5755 275.8 17.9756 289.627 17.9756C303.166 17.9756 308.743 30.6911 305.782 48.1845ZM293.16 51.9222H290.055C290.343 50.6506 290.63 49.4176 290.832 48.1075C294.482 26.9539 281.748 27.5702 278.183 48.1846C277.982 49.5332 277.838 50.7662 277.695 51.9222H280.799C279.304 68.0282 289.107 67.6814 293.16 51.9222ZM338.782 50.2267L346.343 76.5823H329.871L326.335 63.2504C323.662 67.5275 320.701 72.1514 318.258 76.5823H302.131L318.89 50.2267H316.303L318.086 47.4524C315.096 38.0895 312.796 28.1481 309.893 18.7464H326.393L329.642 31.0765C331.999 26.9151 334.701 22.9848 337.144 18.7464H353.213L335.247 46.99L336.253 50.2266L338.782 50.2267Z" fill="white"/>
<path d="M140.127 95.8617C140.261 95.8617 140.375 95.9246 140.468 96.0504C140.562 96.1761 140.609 96.3288 140.609 96.5085V97.838C140.609 98.0057 140.562 98.1524 140.468 98.2782C140.375 98.404 140.261 98.4669 140.127 98.4669H135.717V103.066C135.717 103.234 135.672 103.381 135.583 103.506C135.493 103.632 135.382 103.695 135.248 103.695H134.229C134.104 103.695 133.994 103.632 133.901 103.506C133.807 103.381 133.76 103.234 133.76 103.066V96.5085C133.76 96.3288 133.807 96.1761 133.901 96.0504C133.994 95.9246 134.104 95.8617 134.229 95.8617H140.127ZM140.73 90.3639C140.855 90.3639 140.964 90.4268 141.058 90.5526C141.152 90.6783 141.199 90.8251 141.199 90.9928V92.3043C141.199 92.484 141.152 92.6367 141.058 92.7625C140.964 92.8882 140.855 92.9511 140.73 92.9511H134.229C134.104 92.9511 133.994 92.8882 133.901 92.7625C133.807 92.6367 133.76 92.484 133.76 92.3043V90.9928C133.76 90.8251 133.807 90.6783 133.901 90.5526C133.994 90.4268 134.104 90.3639 134.229 90.3639H140.73ZM161.313 102.815C161.375 103.006 161.359 103.201 161.266 103.399C161.172 103.596 161.044 103.695 160.884 103.695H151.957C151.876 103.695 151.8 103.668 151.729 103.614C151.657 103.56 151.604 103.492 151.568 103.408C151.47 103.216 151.456 103.018 151.528 102.815L151.943 101.503C151.979 101.383 152.037 101.288 152.118 101.216C152.198 101.144 152.283 101.108 152.372 101.108H158.618L156.42 94.065L154.624 99.8144C154.588 99.9341 154.532 100.027 154.456 100.093C154.381 100.159 154.293 100.192 154.195 100.192H153.069C152.899 100.192 152.765 100.096 152.667 99.9042C152.631 99.8203 152.609 99.7245 152.6 99.6167C152.591 99.5089 152.6 99.4071 152.627 99.3113L155.348 90.7592C155.384 90.6394 155.439 90.5436 155.515 90.4717C155.591 90.3999 155.678 90.3639 155.777 90.3639H157.064C157.162 90.3639 157.249 90.3999 157.325 90.4717C157.401 90.5436 157.457 90.6394 157.492 90.7592L161.313 102.815ZM178.745 98.5387L180.769 102.689C180.868 102.905 180.872 103.12 180.783 103.336C180.747 103.432 180.691 103.509 180.615 103.569C180.539 103.629 180.461 103.659 180.381 103.659H179.161C179.08 103.659 179.005 103.632 178.933 103.578C178.862 103.524 178.808 103.456 178.772 103.372L176.735 99.0418H174.349V103.03C174.349 103.198 174.302 103.345 174.208 103.471C174.114 103.596 174.005 103.659 173.88 103.659H172.861C172.736 103.659 172.627 103.596 172.533 103.471C172.439 103.345 172.392 103.198 172.392 103.03V97.1194C172.392 96.9517 172.439 96.805 172.533 96.6792C172.627 96.5534 172.736 96.4905 172.861 96.4905H176.989C177.776 96.4905 178.299 96.1911 178.558 95.5922C178.647 95.4006 178.692 95.1251 178.692 94.7657C178.692 94.2028 178.553 93.7596 178.276 93.4362C177.99 93.0889 177.579 92.9152 177.043 92.9152H172.861C172.736 92.9152 172.627 92.8523 172.533 92.7265C172.439 92.6008 172.392 92.454 172.392 92.2864V90.9928C172.392 90.8251 172.439 90.6783 172.533 90.5526C172.627 90.4268 172.736 90.3639 172.861 90.3639H177.164C178.209 90.3639 179.045 90.7592 179.67 91.5497C180.323 92.3403 180.649 93.4123 180.649 94.7657C180.649 95.6401 180.506 96.3857 180.22 97.0026C179.934 97.6194 179.518 98.0896 178.973 98.413L178.745 98.5387ZM201.486 90.3639C201.611 90.3639 201.721 90.4268 201.815 90.5526C201.908 90.6783 201.955 90.8251 201.955 90.9928V103.03C201.955 103.198 201.908 103.345 201.815 103.471C201.721 103.596 201.611 103.659 201.486 103.659H200.467C200.333 103.659 200.222 103.596 200.132 103.471C200.043 103.345 199.998 103.198 199.998 103.03V94.9095L197.519 99.1855C197.42 99.3412 197.295 99.4191 197.143 99.4191C197.072 99.4191 197 99.3981 196.929 99.3562C196.857 99.3143 196.804 99.2514 196.768 99.1676L192.372 91.3701C192.318 91.2862 192.287 91.1814 192.278 91.0556C192.269 90.9299 192.287 90.8161 192.331 90.7143C192.376 90.6125 192.434 90.5286 192.506 90.4627C192.577 90.3969 192.658 90.3639 192.747 90.3639H193.926C194.078 90.3639 194.203 90.4478 194.302 90.6155L197.143 95.6461L199.918 90.6155C200.016 90.4478 200.146 90.3639 200.307 90.3639H201.486ZM193.766 99.0777C193.891 99.0777 194 99.1376 194.094 99.2574C194.188 99.3772 194.235 99.5269 194.235 99.7066V103.03C194.235 103.198 194.188 103.345 194.094 103.471C194 103.596 193.891 103.659 193.766 103.659H192.747C192.622 103.659 192.512 103.596 192.418 103.471C192.325 103.345 192.278 103.198 192.278 103.03V99.7066C192.278 99.5269 192.325 99.3772 192.418 99.2574C192.512 99.1376 192.622 99.0777 192.747 99.0777H193.766ZM233.081 95.8617C233.215 95.8617 233.329 95.9246 233.423 96.0504C233.517 96.1761 233.564 96.3288 233.564 96.5085V97.838C233.564 98.0057 233.517 98.1524 233.423 98.2782C233.329 98.404 233.215 98.4669 233.081 98.4669H228.671V103.066C228.671 103.234 228.627 103.381 228.537 103.506C228.448 103.632 228.336 103.695 228.202 103.695H227.184C227.059 103.695 226.949 103.632 226.855 103.506C226.761 103.381 226.715 103.234 226.715 103.066V96.5085C226.715 96.3288 226.761 96.1761 226.855 96.0504C226.949 95.9246 227.059 95.8617 227.184 95.8617H233.081ZM233.685 90.3639C233.81 90.3639 233.919 90.4268 234.013 90.5526C234.107 90.6783 234.154 90.8251 234.154 90.9928V92.3043C234.154 92.484 234.107 92.6367 234.013 92.7625C233.919 92.8882 233.81 92.9511 233.685 92.9511H227.184C227.059 92.9511 226.949 92.8882 226.855 92.7625C226.761 92.6367 226.715 92.484 226.715 92.3043V90.9928C226.715 90.8251 226.761 90.6783 226.855 90.5526C226.949 90.4268 227.059 90.3639 227.184 90.3639H233.685ZM251.801 98.5387L253.825 102.689C253.923 102.905 253.928 103.12 253.838 103.336C253.803 103.432 253.747 103.509 253.671 103.569C253.595 103.629 253.517 103.659 253.436 103.659H252.216C252.136 103.659 252.06 103.632 251.989 103.578C251.917 103.524 251.864 103.456 251.828 103.372L249.79 99.0418H247.405V103.03C247.405 103.198 247.358 103.345 247.264 103.471C247.17 103.596 247.06 103.659 246.935 103.659H245.917C245.792 103.659 245.682 103.596 245.588 103.471C245.494 103.345 245.448 103.198 245.448 103.03V97.1194C245.448 96.9517 245.494 96.805 245.588 96.6792C245.682 96.5534 245.792 96.4905 245.917 96.4905H250.045C250.831 96.4905 251.354 96.1911 251.613 95.5922C251.703 95.4006 251.747 95.1251 251.747 94.7657C251.747 94.2028 251.609 93.7596 251.332 93.4362C251.046 93.0889 250.635 92.9152 250.099 92.9152H245.917C245.792 92.9152 245.682 92.8523 245.588 92.7265C245.494 92.6008 245.448 92.454 245.448 92.2864V90.9928C245.448 90.8251 245.494 90.6783 245.588 90.5526C245.682 90.4268 245.792 90.3639 245.917 90.3639H250.219C251.265 90.3639 252.1 90.7592 252.726 91.5497C253.378 92.3403 253.704 93.4123 253.704 94.7657C253.704 95.6401 253.561 96.3857 253.275 97.0026C252.989 97.6194 252.574 98.0896 252.029 98.413L251.801 98.5387ZM272.424 101.108C272.558 101.108 272.67 101.171 272.759 101.297C272.848 101.422 272.893 101.575 272.893 101.755V103.066C272.893 103.234 272.848 103.381 272.759 103.506C272.67 103.632 272.558 103.695 272.424 103.695H265.802C265.677 103.695 265.568 103.632 265.474 103.506C265.38 103.381 265.333 103.234 265.333 103.066V101.755C265.333 101.575 265.38 101.422 265.474 101.297C265.568 101.171 265.677 101.108 265.802 101.108H272.424ZM265.802 98.3231C265.677 98.3231 265.568 98.2602 265.474 98.1345C265.38 98.0087 265.333 97.862 265.333 97.6943V96.3468C265.333 96.1791 265.38 96.0324 265.474 95.9066C265.568 95.7809 265.677 95.718 265.802 95.718H271.821C271.955 95.718 272.069 95.7809 272.163 95.9066C272.256 96.0324 272.303 96.1791 272.303 96.3468V97.6943C272.303 97.862 272.256 98.0087 272.163 98.1345C272.069 98.2602 271.955 98.3231 271.821 98.3231H265.802ZM272.424 90.3639C272.558 90.3639 272.67 90.4268 272.759 90.5526C272.848 90.6783 272.893 90.8251 272.893 90.9928V92.3043C272.893 92.484 272.848 92.6367 272.759 92.7625C272.67 92.8882 272.558 92.9511 272.424 92.9511H265.802C265.677 92.9511 265.568 92.8882 265.474 92.7625C265.38 92.6367 265.333 92.484 265.333 92.3043V90.9928C265.333 90.8251 265.38 90.6783 265.474 90.5526C265.568 90.4268 265.677 90.3639 265.802 90.3639H272.424ZM290.956 97.0295C291.34 97.3529 291.633 97.7482 291.834 98.2153C292.035 98.6825 292.135 99.2035 292.135 99.7784C292.135 101.132 291.751 102.168 290.983 102.887C290.464 103.39 289.763 103.707 288.878 103.839H288.825C288.7 103.839 288.597 103.785 288.516 103.677C288.409 103.545 288.356 103.39 288.356 103.21V101.916C288.356 101.761 288.396 101.623 288.476 101.503C288.557 101.383 288.655 101.312 288.771 101.288C289.191 101.228 289.517 101.096 289.75 100.892C289.928 100.749 290.049 100.563 290.111 100.335C290.147 100.204 290.165 100.036 290.165 99.8323C290.165 99.7006 290.147 99.5868 290.111 99.491C290.076 99.3951 290.013 99.3053 289.924 99.2215C289.665 98.9819 289.33 98.7783 288.919 98.6106L288.704 98.5208C288.257 98.3531 287.846 98.2153 287.471 98.1075C287.39 98.0836 287.261 98.0417 287.082 97.9818L286.935 97.9279C286.613 97.8201 286.273 97.6703 285.916 97.4787C285.389 97.1793 284.955 96.802 284.616 96.3468C284.223 95.8198 284.026 95.1251 284.026 94.2627C284.026 93.0769 284.366 92.1127 285.045 91.3701C285.509 90.843 286.162 90.5077 287.002 90.3639C287.145 90.34 287.268 90.3939 287.37 90.5256C287.473 90.6574 287.525 90.8131 287.525 90.9928V92.2864C287.525 92.4421 287.489 92.5798 287.417 92.6996C287.346 92.8194 287.254 92.8882 287.143 92.9062C287.031 92.9242 286.917 92.9571 286.801 93.005C286.542 93.1368 286.358 93.2655 286.251 93.3913C286.144 93.5171 286.068 93.6458 286.023 93.7776C285.979 93.9812 285.956 94.1728 285.956 94.3525C285.956 94.4483 285.996 94.5501 286.077 94.6579C286.202 94.8256 286.385 94.9754 286.626 95.1071C286.734 95.167 286.921 95.2568 287.189 95.3766L288.865 95.9336L288.945 95.9695C289.365 96.1252 289.669 96.245 289.857 96.3288C290.277 96.5205 290.643 96.754 290.956 97.0295ZM288.717 92.9691C288.61 92.9332 288.523 92.8583 288.456 92.7445C288.389 92.6307 288.356 92.496 288.356 92.3403V91.0287C288.356 90.837 288.414 90.6753 288.53 90.5436C288.574 90.4837 288.633 90.4448 288.704 90.4268C288.776 90.4088 288.843 90.4058 288.905 90.4178C289.691 90.5855 290.33 90.9448 290.822 91.4958C291.492 92.2384 291.849 93.1847 291.894 94.3345C291.903 94.5022 291.861 94.6549 291.767 94.7927C291.673 94.9304 291.559 94.9993 291.425 94.9993H290.38C290.263 94.9993 290.161 94.9454 290.071 94.8376C289.982 94.7298 289.933 94.5981 289.924 94.4423C289.888 94.1309 289.812 93.8734 289.696 93.6698C289.508 93.3703 289.218 93.1428 288.825 92.9871C288.798 92.9871 288.78 92.9811 288.771 92.9691H288.717ZM287.149 101.216C287.256 101.24 287.346 101.312 287.417 101.431C287.489 101.551 287.525 101.683 287.525 101.827V103.156C287.525 103.348 287.471 103.509 287.364 103.641C287.274 103.737 287.172 103.785 287.055 103.785H286.988C286.157 103.617 285.474 103.252 284.938 102.689C284.241 101.946 283.847 100.91 283.758 99.5808C283.74 99.3891 283.78 99.2245 283.879 99.0867C283.977 98.949 284.093 98.8801 284.227 98.8801H285.286C285.411 98.8801 285.518 98.937 285.608 99.0508C285.697 99.1646 285.746 99.3053 285.755 99.473C285.782 100.072 286.001 100.533 286.412 100.856C286.6 101 286.845 101.12 287.149 101.216ZM304.046 94.9634C303.921 94.9634 303.811 94.9005 303.718 94.7747C303.624 94.649 303.577 94.5022 303.577 94.3345V90.9928C303.577 90.8251 303.624 90.6783 303.718 90.5526C303.811 90.4268 303.921 90.3639 304.046 90.3639H305.065C305.199 90.3639 305.31 90.4268 305.4 90.5526C305.489 90.6783 305.534 90.8251 305.534 90.9928V94.3345C305.534 94.5022 305.489 94.649 305.4 94.7747C305.31 94.9005 305.199 94.9634 305.065 94.9634H304.046ZM311.324 90.3639C311.449 90.3639 311.559 90.4268 311.653 90.5526C311.746 90.6783 311.793 90.8251 311.793 90.9928V103.066C311.793 103.234 311.746 103.381 311.653 103.506C311.559 103.632 311.449 103.695 311.324 103.695H310.305C310.171 103.695 310.06 103.632 309.97 103.506C309.881 103.381 309.836 103.234 309.836 103.066V98.3231H305.534V103.066C305.534 103.234 305.489 103.381 305.4 103.506C305.31 103.632 305.199 103.695 305.065 103.695H304.046C303.921 103.695 303.811 103.632 303.718 103.506C303.624 103.381 303.577 103.234 303.577 103.066V96.3468C303.577 96.1791 303.624 96.0324 303.718 95.9066C303.811 95.7809 303.921 95.718 304.046 95.718H309.836V90.9928C309.836 90.8251 309.881 90.6783 309.97 90.5526C310.06 90.4268 310.171 90.3639 310.305 90.3639H311.324Z" fill="white"/>
</svg>
